<svg xmlns="http://www.w3.org/2000/svg" version="1.1" width="486" height="542" viewBox="0 0 486 542">
<g transform="scale(1,1)">
<path d="M 211,457 L 209,457 L 209,459 L 208,460 L 208,463 L 207,464 L 208,465 L 208,469 L 209,469 L 210,470 L 212,468 L 212,466 L 213,465 L 214,465 L 213,464 L 213,463 L 211,461 Z" fill="none" stroke="white" stroke-width="1.0" />
<path d="M 248,453 L 247,454 L 247,457 L 246,458 L 246,460 L 245,461 L 245,463 L 244,464 L 245,465 L 245,469 L 246,470 L 248,468 L 249,468 L 249,466 L 250,465 L 250,460 L 249,459 L 249,458 L 248,457 Z" fill="none" stroke="white" stroke-width="1.0" />
<path d="M 347,453 L 348,456 L 349,456 L 351,458 L 351,462 L 352,463 L 352,477 L 351,478 L 351,482 L 347,486 L 347,488 L 350,490 L 365,490 L 368,488 L 368,486 L 364,482 L 364,477 L 365,476 L 368,476 L 376,486 L 376,487 L 380,490 L 381,489 L 387,489 L 388,490 L 391,490 L 395,488 L 395,485 L 393,483 L 390,482 L 389,480 L 380,471 L 380,470 L 378,469 L 378,468 L 375,465 L 375,463 L 381,457 L 383,456 L 389,456 L 390,452 L 388,450 L 373,450 L 371,452 L 371,456 L 372,457 L 367,464 L 364,464 L 363,463 L 363,458 L 367,454 L 367,452 L 365,450 L 350,450 Z" fill="white" stroke="none" stroke-width="1.0" />
<path d="M 317,450 L 314,452 L 312,452 L 309,455 L 308,455 L 304,461 L 304,463 L 303,464 L 303,476 L 304,477 L 304,479 L 306,481 L 306,482 L 302,486 L 302,487 L 304,489 L 308,485 L 309,485 L 311,487 L 312,487 L 315,489 L 317,489 L 318,490 L 328,490 L 329,489 L 331,489 L 332,488 L 335,487 L 337,485 L 338,485 L 341,482 L 341,481 L 343,478 L 343,476 L 344,475 L 344,466 L 343,465 L 343,463 L 342,462 L 342,461 L 340,458 L 344,454 L 344,453 L 342,451 L 338,455 L 337,455 L 334,452 L 333,452 L 332,451 L 330,451 L 329,450 Z" fill="white" stroke="none" stroke-width="1.0" />
<path d="M 329,468 L 330,469 L 330,470 L 331,471 L 331,478 L 330,479 L 330,480 L 328,482 L 323,482 L 319,478 L 319,477 L 318,476 L 319,475 L 320,475 L 326,469 L 327,469 L 328,468 Z" fill="white" stroke="none" stroke-width="1.0" />
<path d="M 322,457 L 323,458 L 324,458 L 327,461 L 327,462 L 328,463 L 327,464 L 327,465 L 326,466 L 325,466 L 320,471 L 319,471 L 318,472 L 316,470 L 316,467 L 315,466 L 315,463 L 316,462 L 316,460 L 318,458 L 319,458 L 320,457 Z" fill="white" stroke="none" stroke-width="1.0" />
<path d="M 256,450 L 256,451 L 255,452 L 255,454 L 256,455 L 257,455 L 259,457 L 259,482 L 256,485 L 255,485 L 255,489 L 256,489 L 257,490 L 263,490 L 264,489 L 271,489 L 272,490 L 282,490 L 283,489 L 287,489 L 289,487 L 292,486 L 295,483 L 295,482 L 297,479 L 297,476 L 298,475 L 298,465 L 297,464 L 297,460 L 293,454 L 292,454 L 290,452 L 288,452 L 287,451 L 285,451 L 284,450 Z" fill="white" stroke="none" stroke-width="1.0" />
<path d="M 275,455 L 276,456 L 278,456 L 279,457 L 280,457 L 283,460 L 283,462 L 284,463 L 284,466 L 285,467 L 285,475 L 284,476 L 284,478 L 283,479 L 283,481 L 281,483 L 280,483 L 279,484 L 277,484 L 276,485 L 275,485 L 274,484 L 273,484 L 272,483 L 272,457 L 273,456 L 274,456 Z" fill="white" stroke="none" stroke-width="1.0" />
<path d="M 218,451 L 217,452 L 217,455 L 218,456 L 220,456 L 222,458 L 222,462 L 223,463 L 223,482 L 220,485 L 219,485 L 218,486 L 218,488 L 221,490 L 224,490 L 225,489 L 241,489 L 242,490 L 249,490 L 251,488 L 251,487 L 252,486 L 252,484 L 253,483 L 253,478 L 252,477 L 252,476 L 249,476 L 248,477 L 248,479 L 247,480 L 247,481 L 245,483 L 243,483 L 242,484 L 239,484 L 238,483 L 237,483 L 235,480 L 235,474 L 236,473 L 236,463 L 235,462 L 235,459 L 236,458 L 236,457 L 237,456 L 238,456 L 240,454 L 240,452 L 238,450 L 220,450 L 219,451 Z" fill="white" stroke="none" stroke-width="1.0" />
<path d="M 182,451 L 180,453 L 180,455 L 181,456 L 183,456 L 185,458 L 185,482 L 183,485 L 181,485 L 181,486 L 180,487 L 181,488 L 181,489 L 182,489 L 183,490 L 188,490 L 189,489 L 204,489 L 205,490 L 212,490 L 214,488 L 214,487 L 215,486 L 215,484 L 216,483 L 216,478 L 215,477 L 215,476 L 211,476 L 211,478 L 210,479 L 210,481 L 205,484 L 201,484 L 198,481 L 198,458 L 200,456 L 203,455 L 203,452 L 200,450 L 184,450 L 183,451 Z" fill="white" stroke="none" stroke-width="1.0" />
<path d="M 134,450 L 131,453 L 131,454 L 135,458 L 135,476 L 136,477 L 136,481 L 137,483 L 141,487 L 145,489 L 147,489 L 148,490 L 161,490 L 162,489 L 164,489 L 168,487 L 171,484 L 173,480 L 173,458 L 178,453 L 178,452 L 176,450 L 163,450 L 161,452 L 161,454 L 163,455 L 166,458 L 166,477 L 165,479 L 161,482 L 154,482 L 152,481 L 149,477 L 149,458 L 153,455 L 153,452 L 151,450 Z" fill="white" stroke="none" stroke-width="1.0" />
<path d="M 91,450 L 89,452 L 89,454 L 90,455 L 91,455 L 94,458 L 94,473 L 93,474 L 93,482 L 89,486 L 89,488 L 91,490 L 98,490 L 99,489 L 108,489 L 109,490 L 118,490 L 119,489 L 122,489 L 124,487 L 125,487 L 128,484 L 128,482 L 129,481 L 129,474 L 125,470 L 124,470 L 122,468 L 122,467 L 125,464 L 125,462 L 126,461 L 126,457 L 125,456 L 125,454 L 123,452 L 122,452 L 121,451 L 119,451 L 118,450 Z" fill="white" stroke="none" stroke-width="1.0" />
<path d="M 109,471 L 110,472 L 112,472 L 114,474 L 114,476 L 115,477 L 115,480 L 114,481 L 114,482 L 111,485 L 110,485 L 109,484 L 108,484 L 107,483 L 107,482 L 106,481 L 106,474 Z" fill="white" stroke="none" stroke-width="1.0" />
<path d="M 108,455 L 110,455 L 113,458 L 113,459 L 114,460 L 114,463 L 113,464 L 113,465 L 111,467 L 107,467 L 106,466 L 106,457 Z" fill="none" stroke="white" stroke-width="1.0" />
<path d="M 269,313 L 269,314 L 268,315 L 267,315 L 266,316 L 265,316 L 263,318 L 262,318 L 261,317 L 261,319 L 260,320 L 259,320 L 257,318 L 256,318 L 256,319 L 255,320 L 255,321 L 253,323 L 251,323 L 249,321 L 249,319 L 247,319 L 246,318 L 246,319 L 245,320 L 245,326 L 246,327 L 249,327 L 251,325 L 252,325 L 253,326 L 253,330 L 255,332 L 255,333 L 257,335 L 257,336 L 258,337 L 258,339 L 259,340 L 260,340 L 261,341 L 268,341 L 269,340 L 270,340 L 270,339 L 272,337 L 272,330 L 271,329 L 271,326 L 270,325 L 270,324 L 269,323 L 268,323 L 266,321 L 268,319 L 271,319 L 271,314 L 270,314 Z" fill="white" stroke="none" stroke-width="1.0" />
<path d="M 270,330 L 271,331 L 271,337 L 267,341 L 262,341 L 259,338 L 259,335 L 260,334 L 261,334 L 265,338 L 266,338 L 268,336 L 268,333 L 269,332 L 269,331 Z" fill="none" stroke="white" stroke-width="1.0" />
<path d="M 262,331 L 263,330 L 264,330 L 265,331 L 265,332 L 264,333 Z" fill="none" stroke="white" stroke-width="1.0" />
<path d="M 268,324 L 270,326 L 270,327 L 268,329 L 267,329 L 266,328 L 266,326 Z" fill="none" stroke="white" stroke-width="1.0" />
<path d="M 264,322 L 265,323 L 265,324 L 266,325 L 265,326 L 265,327 L 263,329 L 261,329 L 260,330 L 257,330 L 255,328 L 255,326 L 257,324 L 260,324 L 261,325 L 261,324 L 263,322 Z" fill="none" stroke="white" stroke-width="1.0" />
<path d="M 328,278 L 328,279 L 325,282 L 325,285 L 326,286 L 326,289 L 327,290 L 327,292 L 329,294 L 329,295 L 330,295 L 335,300 L 336,300 L 338,302 L 339,301 L 341,303 L 343,303 L 343,302 L 341,300 L 341,299 L 340,298 L 340,297 L 341,296 L 339,294 L 339,293 L 335,289 L 335,287 L 334,286 L 334,285 L 333,284 L 333,283 L 332,282 L 331,282 L 329,280 L 329,279 L 330,278 Z" fill="white" stroke="none" stroke-width="1.0" />
<path d="M 417,277 L 414,277 L 413,276 L 409,276 L 407,278 L 406,278 L 402,282 L 402,283 L 399,286 L 399,289 L 398,290 L 398,293 L 397,294 L 397,300 L 396,301 L 396,303 L 395,304 L 395,306 L 394,307 L 394,309 L 393,310 L 394,311 L 393,312 L 393,313 L 392,314 L 392,316 L 393,317 L 393,318 L 394,317 L 395,317 L 398,314 L 399,314 L 398,313 L 398,312 L 403,307 L 403,306 L 404,305 L 404,304 L 405,303 L 405,302 L 406,301 L 406,300 L 407,299 L 407,297 L 408,296 L 408,295 L 410,293 L 410,292 L 413,289 L 413,288 L 415,286 L 416,286 L 417,285 L 418,285 L 419,284 L 419,283 L 420,282 L 420,280 Z" fill="white" stroke="none" stroke-width="1.0" />
<path d="M 165,227 L 164,227 L 163,228 L 158,228 L 157,229 L 156,228 L 155,229 L 154,229 L 153,230 L 152,230 L 151,231 L 151,232 L 150,233 L 149,232 L 149,233 L 148,234 L 148,235 L 147,236 L 146,236 L 146,237 L 144,239 L 143,239 L 142,240 L 140,240 L 139,241 L 136,241 L 136,242 L 135,243 L 135,247 L 137,249 L 137,251 L 138,252 L 138,253 L 141,256 L 141,257 L 143,257 L 144,258 L 146,258 L 148,256 L 150,256 L 150,255 L 151,254 L 153,254 L 157,250 L 158,250 L 161,247 L 161,246 L 162,245 L 162,244 L 164,242 L 164,241 L 165,240 L 165,237 L 166,236 L 166,230 L 165,230 L 164,229 L 165,228 Z" fill="white" stroke="none" stroke-width="1.0" />
<path d="M 339,224 L 339,226 L 338,227 L 339,227 L 340,228 L 340,231 L 339,232 L 339,238 L 340,239 L 339,240 L 339,242 L 340,243 L 340,244 L 342,246 L 342,249 L 346,253 L 346,254 L 348,254 L 351,257 L 352,257 L 353,258 L 354,257 L 354,256 L 353,255 L 353,250 L 351,248 L 351,247 L 350,246 L 350,245 L 349,244 L 349,243 L 350,242 L 349,241 L 349,239 L 348,238 L 348,237 L 347,236 L 347,235 L 343,231 L 343,230 L 340,227 L 340,226 L 339,225 Z" fill="white" stroke="none" stroke-width="1.0" />
<path d="M 356,212 L 356,215 L 357,215 L 358,216 L 358,217 L 357,218 L 357,219 L 358,220 L 358,221 L 361,224 L 361,226 L 363,228 L 363,230 L 364,231 L 364,232 L 365,233 L 365,234 L 366,235 L 366,236 L 367,237 L 367,239 L 368,240 L 368,242 L 369,243 L 369,245 L 370,246 L 370,247 L 371,248 L 371,249 L 372,249 L 374,251 L 380,251 L 381,250 L 382,250 L 382,249 L 383,248 L 383,246 L 382,245 L 381,245 L 380,244 L 380,243 L 381,242 L 380,241 L 380,240 L 376,236 L 376,235 L 375,234 L 375,232 L 371,228 L 371,227 L 368,224 L 369,223 L 365,219 L 365,218 L 361,214 L 360,214 L 358,212 L 358,211 L 357,212 Z" fill="white" stroke="none" stroke-width="1.0" />
<path d="M 333,209 L 331,209 L 330,208 L 328,208 L 327,207 L 324,207 L 323,208 L 322,208 L 321,209 L 319,209 L 316,212 L 315,212 L 314,213 L 313,213 L 308,218 L 308,219 L 307,220 L 307,224 L 309,226 L 309,232 L 311,234 L 311,235 L 312,236 L 312,239 L 313,238 L 314,238 L 314,237 L 315,236 L 315,235 L 316,234 L 316,233 L 317,232 L 317,231 L 319,229 L 319,228 L 321,226 L 321,225 L 322,224 L 323,224 L 324,223 L 325,223 L 326,222 L 327,222 L 328,221 L 332,221 L 333,222 L 336,222 L 337,223 L 337,222 L 338,221 L 338,220 L 337,219 L 337,218 L 336,217 L 336,214 L 335,213 L 335,211 Z" fill="white" stroke="none" stroke-width="1.0" />
<path d="M 306,193 L 303,193 L 302,192 L 302,191 L 299,191 L 298,190 L 296,190 L 294,188 L 293,188 L 292,187 L 291,187 L 289,185 L 289,184 L 288,184 L 287,183 L 283,183 L 282,184 L 280,184 L 281,185 L 279,187 L 278,187 L 275,190 L 274,190 L 273,191 L 273,192 L 268,197 L 268,198 L 267,199 L 267,200 L 266,201 L 266,202 L 265,203 L 265,204 L 264,205 L 264,210 L 266,212 L 266,217 L 267,218 L 267,219 L 268,220 L 270,220 L 272,218 L 273,218 L 273,217 L 276,214 L 277,214 L 283,208 L 284,208 L 285,207 L 287,207 L 288,206 L 290,206 L 291,205 L 292,206 L 294,204 L 296,204 L 298,202 L 299,202 L 300,201 L 301,201 L 302,200 L 304,200 L 303,199 L 304,198 L 306,198 L 306,196 L 305,195 L 305,194 Z" fill="white" stroke="none" stroke-width="1.0" />
<path d="M 177,165 L 176,166 L 176,168 L 177,169 L 179,169 L 179,167 Z" fill="none" stroke="white" stroke-width="1.0" />
<path d="M 391,139 L 391,143 L 392,144 L 392,150 L 394,153 L 394,155 L 395,156 L 395,157 L 397,159 L 397,160 L 398,161 L 398,162 L 400,164 L 400,165 L 403,168 L 405,168 L 407,171 L 407,173 L 408,174 L 408,179 L 410,182 L 410,187 L 411,188 L 411,192 L 412,193 L 412,195 L 413,196 L 413,198 L 414,199 L 414,200 L 416,202 L 421,202 L 422,201 L 424,201 L 425,200 L 429,200 L 429,199 L 430,198 L 430,195 L 428,192 L 428,185 L 427,184 L 427,181 L 426,180 L 427,179 L 427,178 L 426,177 L 425,174 L 419,168 L 419,167 L 418,166 L 417,166 L 416,165 L 416,164 L 415,164 L 414,163 L 414,162 L 411,160 L 411,159 L 410,158 L 409,158 L 407,156 L 405,156 L 402,153 L 402,152 L 398,148 L 397,145 L 393,141 L 393,140 L 392,139 Z" fill="white" stroke="none" stroke-width="1.0" />
<path d="M 216,138 L 215,138 L 214,139 L 214,140 L 213,141 L 212,141 L 212,145 L 214,145 L 214,142 L 215,141 L 218,141 L 218,140 Z" fill="none" stroke="white" stroke-width="1.0" />
<path d="M 210,133 L 209,134 L 210,135 L 210,136 L 212,136 L 212,134 L 211,134 Z" fill="none" stroke="white" stroke-width="1.0" />
<path d="M 197,134 L 197,135 L 198,136 L 200,136 L 201,137 L 203,135 L 205,135 L 206,136 L 206,140 L 207,141 L 207,143 L 208,143 L 209,142 L 209,139 L 208,138 L 208,136 L 206,136 L 205,135 L 206,134 L 206,131 L 205,130 L 203,130 L 203,131 L 202,132 L 202,133 L 201,134 L 200,134 L 199,133 L 198,134 Z" fill="none" stroke="white" stroke-width="1.0" />
<path d="M 366,86 L 367,86 L 369,88 L 369,89 L 371,89 L 372,90 L 373,90 L 375,92 L 377,92 L 375,90 L 376,89 L 373,86 L 372,86 L 370,84 L 369,84 L 367,86 Z" fill="none" stroke="white" stroke-width="1.0" />
<path d="M 313,77 L 311,81 L 311,85 L 310,86 L 309,85 L 311,89 L 310,96 L 311,106 L 316,115 L 320,118 L 330,131 L 333,137 L 335,146 L 333,152 L 327,157 L 324,156 L 322,157 L 311,150 L 307,151 L 308,152 L 299,162 L 298,165 L 299,172 L 308,176 L 319,170 L 325,169 L 339,174 L 347,181 L 348,180 L 350,183 L 356,185 L 368,195 L 374,204 L 379,208 L 380,211 L 386,216 L 389,221 L 391,221 L 390,208 L 384,196 L 381,193 L 381,191 L 377,187 L 371,173 L 369,172 L 364,149 L 359,137 L 335,110 Z" fill="white" stroke="none" stroke-width="1.19" />
<path d="M 229,34 L 194,39 L 149,57 L 123,73 L 90,106 L 69,141 L 55,180 L 51,238 L 66,303 L 110,364 L 143,389 L 203,412 L 248,416 L 295,408 L 336,391 L 365,370 L 367,356 L 340,338 L 334,322 L 313,304 L 288,315 L 290,330 L 279,352 L 249,353 L 233,335 L 222,294 L 185,256 L 178,255 L 149,277 L 136,277 L 121,260 L 110,230 L 111,205 L 120,188 L 144,186 L 155,206 L 168,188 L 168,181 L 146,161 L 141,132 L 145,115 L 160,101 L 183,90 L 198,90 L 227,120 L 232,149 L 248,141 L 250,128 L 240,99 L 245,71 L 290,41 Z" fill="white" stroke="none" stroke-width="4.36" />
<path d="M 75,186 L 76,187 L 76,195 L 75,196 L 74,195 L 74,187 Z" fill="none" stroke="white" stroke-width="1.0" />
<path d="M 216,24 L 177,33 L 143,48 L 107,74 L 85,97 L 59,138 L 46,174 L 40,212 L 41,248 L 49,285 L 64,321 L 85,352 L 113,380 L 151,405 L 190,420 L 225,426 L 258,426 L 293,420 L 326,408 L 357,390 L 389,362 L 419,319 L 436,279 L 443,241 L 442,199 L 434,164 L 414,121 L 395,93 L 363,63 L 326,41 L 285,27 L 255,23 Z" fill="white" stroke="none" stroke-width="7.14" />
<path d="M 365,309 L 366,310 L 366,318 L 365,319 L 364,318 L 364,317 L 363,316 L 363,311 Z" fill="none" stroke="white" stroke-width="1.0" />
<path d="M 359,309 L 361,309 L 362,310 L 362,311 L 363,312 L 362,313 L 362,315 L 361,316 L 360,315 L 360,314 L 359,313 L 359,312 L 358,311 L 358,310 Z" fill="none" stroke="white" stroke-width="1.0" />
<path d="M 270,308 L 273,311 L 273,312 L 274,313 L 274,314 L 275,315 L 275,316 L 277,318 L 277,320 L 278,321 L 278,335 L 277,336 L 277,338 L 275,340 L 275,341 L 273,343 L 272,343 L 271,344 L 269,344 L 268,345 L 259,345 L 258,344 L 255,344 L 253,342 L 252,342 L 249,339 L 248,339 L 247,338 L 247,337 L 244,334 L 244,332 L 243,331 L 243,330 L 242,329 L 242,315 L 243,314 L 247,314 L 248,315 L 253,315 L 254,314 L 257,314 L 258,313 L 260,313 L 261,312 L 263,312 L 265,310 L 266,310 L 268,308 Z" fill="white" stroke="none" stroke-width="1.0" />
<path d="M 267,307 L 266,308 L 265,308 L 264,309 L 263,309 L 261,311 L 257,311 L 256,312 L 249,312 L 248,313 L 247,313 L 246,312 L 245,312 L 244,311 L 246,309 L 247,309 L 248,308 L 249,308 L 250,307 L 252,307 L 253,306 L 256,306 L 257,305 L 265,305 Z" fill="white" stroke="none" stroke-width="1.0" />
<path d="M 383,304 L 384,305 L 384,306 L 383,307 L 382,316 L 379,321 L 379,327 L 378,328 L 378,330 L 377,331 L 377,333 L 376,334 L 376,337 L 372,344 L 370,344 L 369,345 L 368,345 L 367,344 L 365,344 L 364,343 L 363,343 L 361,341 L 361,340 L 362,339 L 365,338 L 365,337 L 366,336 L 367,336 L 369,333 L 370,333 L 370,332 L 371,331 L 370,330 L 369,330 L 362,337 L 361,337 L 360,338 L 358,338 L 354,334 L 354,333 L 353,333 L 351,331 L 348,330 L 347,329 L 347,328 L 348,327 L 349,328 L 355,328 L 359,324 L 359,323 L 360,322 L 360,318 L 361,317 L 363,319 L 363,323 L 364,324 L 364,325 L 363,326 L 362,326 L 359,329 L 358,329 L 355,331 L 359,331 L 364,325 L 366,325 L 367,324 L 368,324 L 368,323 L 369,322 L 369,321 L 368,320 L 368,308 L 369,307 L 370,308 L 370,317 L 372,319 L 373,318 L 374,318 L 374,317 L 375,316 L 376,316 L 376,311 L 375,310 L 375,308 L 376,307 Z" fill="white" stroke="none" stroke-width="1.0" />
<path d="M 234,297 L 235,296 L 236,296 L 237,297 L 238,297 L 239,298 L 240,298 L 242,300 L 250,300 L 251,299 L 253,299 L 255,301 L 256,301 L 257,302 L 255,304 L 254,304 L 253,305 L 249,305 L 248,306 L 247,306 L 246,307 L 245,307 L 241,311 L 240,311 L 237,308 L 237,307 L 236,306 L 236,304 L 235,303 L 235,301 L 234,300 Z" fill="white" stroke="none" stroke-width="1.0" />
<path d="M 271,285 L 272,286 L 272,287 L 271,288 L 271,292 L 270,293 L 270,295 L 269,296 L 269,297 L 268,298 L 268,299 L 265,302 L 264,302 L 263,301 L 261,301 L 260,300 L 259,300 L 258,299 L 258,298 L 259,297 L 260,297 L 262,295 L 263,295 L 266,292 L 266,291 L 269,288 L 269,287 Z" fill="white" stroke="none" stroke-width="1.0" />
<path d="M 375,268 L 376,269 L 376,275 L 375,276 L 374,275 L 374,269 Z" fill="none" stroke="white" stroke-width="1.0" />
<path d="M 384,266 L 385,267 L 385,271 L 384,272 L 383,271 L 383,267 Z" fill="none" stroke="white" stroke-width="1.0" />
<path d="M 370,265 L 372,265 L 373,266 L 373,270 L 372,271 L 371,271 L 370,270 L 370,269 L 369,268 L 369,266 Z" fill="none" stroke="white" stroke-width="1.0" />
<path d="M 434,268 L 435,270 L 434,271 L 433,278 L 431,280 L 430,286 L 423,290 L 417,295 L 416,297 L 416,302 L 413,306 L 408,316 L 397,328 L 397,329 L 388,340 L 387,343 L 382,350 L 382,352 L 381,353 L 382,355 L 383,354 L 390,354 L 391,355 L 382,364 L 379,366 L 377,366 L 376,365 L 377,346 L 378,345 L 378,341 L 380,337 L 380,334 L 382,330 L 383,322 L 385,318 L 386,306 L 388,303 L 389,294 L 390,293 L 392,282 L 395,279 L 398,274 L 400,273 L 408,264 L 409,264 L 413,268 L 419,268 L 423,272 L 425,272 L 431,268 Z" fill="white" stroke="none" stroke-width="1.0" />
<path d="M 339,261 L 344,266 L 344,267 L 345,267 L 354,276 L 354,277 L 355,278 L 355,279 L 354,280 L 352,280 L 351,281 L 350,281 L 348,283 L 348,284 L 350,286 L 352,286 L 353,287 L 354,287 L 358,291 L 358,292 L 361,295 L 361,296 L 363,298 L 363,299 L 368,304 L 367,305 L 366,305 L 365,306 L 359,306 L 358,305 L 357,305 L 354,302 L 354,301 L 353,300 L 353,299 L 352,298 L 352,297 L 351,296 L 351,295 L 350,294 L 350,293 L 349,292 L 349,291 L 348,290 L 348,289 L 347,288 L 347,287 L 346,286 L 346,285 L 344,283 L 344,282 L 343,281 L 343,280 L 341,278 L 341,277 L 337,273 L 337,270 L 338,269 L 338,262 Z" fill="white" stroke="none" stroke-width="1.0" />
<path d="M 412,257 L 410,260 L 406,262 L 398,269 L 397,269 L 397,270 L 391,276 L 388,282 L 388,286 L 386,290 L 386,293 L 382,300 L 377,304 L 374,304 L 370,302 L 366,298 L 367,297 L 370,297 L 374,295 L 380,289 L 380,288 L 377,288 L 375,291 L 369,295 L 365,295 L 356,285 L 351,283 L 352,282 L 355,282 L 356,283 L 363,284 L 369,279 L 369,277 L 371,274 L 373,276 L 373,281 L 365,287 L 363,287 L 364,288 L 367,288 L 370,286 L 373,282 L 377,282 L 379,280 L 379,278 L 378,277 L 378,269 L 381,263 L 382,264 L 382,275 L 384,276 L 387,274 L 388,264 L 389,263 L 389,261 L 391,259 L 396,258 L 402,255 L 410,255 Z" fill="white" stroke="none" stroke-width="1.0" />
<path d="M 264,256 L 264,258 L 262,261 L 262,263 L 261,264 L 261,265 L 260,266 L 260,267 L 256,271 L 256,272 L 255,273 L 254,273 L 251,276 L 250,276 L 248,278 L 247,278 L 240,285 L 233,285 L 232,284 L 230,284 L 227,282 L 225,282 L 224,281 L 223,281 L 221,279 L 220,279 L 215,274 L 214,274 L 211,271 L 211,270 L 206,265 L 206,263 L 207,262 L 208,263 L 208,264 L 209,264 L 211,266 L 212,266 L 215,268 L 217,268 L 220,270 L 224,270 L 225,271 L 233,271 L 234,272 L 238,272 L 239,271 L 243,271 L 244,270 L 246,270 L 249,268 L 251,268 L 252,267 L 253,267 L 259,261 L 259,260 L 261,258 L 261,257 L 263,255 Z" fill="white" stroke="none" stroke-width="1.0" />
<path d="M 413,253 L 414,252 L 417,255 L 417,256 L 416,257 L 415,257 L 413,255 Z" fill="none" stroke="white" stroke-width="1.0" />
<path d="M 264,252 L 265,253 L 265,255 L 264,256 L 263,255 L 263,253 Z" fill="none" stroke="white" stroke-width="1.0" />
<path d="M 327,242 L 329,244 L 329,248 L 330,249 L 330,251 L 335,258 L 335,267 L 334,268 L 334,275 L 339,280 L 339,281 L 343,286 L 343,287 L 344,288 L 344,290 L 346,292 L 346,293 L 349,298 L 349,300 L 351,302 L 353,307 L 355,309 L 355,311 L 358,316 L 358,320 L 357,321 L 357,322 L 353,326 L 352,326 L 351,325 L 349,320 L 346,317 L 345,317 L 343,314 L 342,314 L 340,312 L 337,311 L 334,308 L 333,308 L 331,306 L 330,306 L 325,301 L 325,300 L 324,300 L 323,299 L 323,298 L 320,295 L 320,293 L 317,288 L 317,285 L 316,284 L 316,282 L 317,281 L 317,279 L 318,278 L 318,276 L 319,275 L 319,273 L 320,272 L 320,270 L 321,269 L 321,266 L 322,265 L 322,262 L 323,261 L 323,255 L 324,254 L 324,249 L 325,248 L 325,246 L 326,245 L 326,243 Z" fill="white" stroke="none" stroke-width="1.0" />
<path d="M 276,232 L 277,233 L 277,244 L 276,245 L 276,253 L 275,254 L 275,258 L 274,259 L 274,266 L 273,267 L 273,271 L 272,272 L 272,275 L 271,276 L 271,278 L 270,279 L 270,280 L 269,281 L 268,284 L 265,287 L 265,288 L 260,293 L 259,293 L 258,294 L 256,294 L 255,295 L 253,295 L 252,296 L 248,296 L 247,297 L 246,297 L 245,296 L 242,296 L 241,295 L 240,295 L 238,293 L 237,293 L 236,292 L 235,289 L 236,288 L 241,288 L 243,286 L 244,286 L 248,282 L 249,282 L 252,279 L 253,279 L 256,276 L 257,276 L 260,273 L 260,272 L 262,270 L 262,269 L 265,264 L 265,262 L 266,261 L 266,259 L 267,258 L 267,256 L 269,253 L 269,250 L 270,249 L 270,243 L 271,242 L 271,239 L 270,238 L 271,237 L 271,236 Z" fill="white" stroke="none" stroke-width="1.0" />
<path d="M 439,223 L 440,224 L 440,233 L 439,234 L 439,247 L 438,248 L 438,253 L 436,255 L 427,255 L 426,254 L 425,254 L 423,252 L 423,251 L 422,250 L 422,249 L 423,248 L 423,246 L 424,245 L 424,244 L 425,243 L 425,242 L 426,241 L 426,240 L 428,238 L 428,237 L 429,236 L 429,235 L 430,234 L 430,233 L 432,231 L 432,230 L 434,228 L 434,227 L 438,223 Z" fill="white" stroke="none" stroke-width="1.0" />
<path d="M 285,221 L 286,222 L 286,227 L 287,228 L 287,230 L 288,231 L 288,234 L 289,235 L 289,253 L 290,254 L 290,269 L 289,270 L 289,282 L 288,283 L 288,285 L 287,286 L 287,288 L 284,291 L 283,294 L 280,297 L 280,298 L 279,299 L 278,299 L 278,300 L 276,302 L 275,302 L 272,304 L 270,302 L 270,301 L 272,298 L 272,296 L 273,295 L 273,294 L 274,293 L 274,291 L 275,290 L 275,286 L 276,285 L 276,281 L 277,280 L 277,273 L 278,272 L 278,259 L 279,258 L 279,250 L 280,249 L 280,225 L 284,221 Z" fill="white" stroke="none" stroke-width="1.0" />
<path d="M 291,216 L 295,222 L 295,225 L 296,226 L 296,228 L 297,229 L 297,232 L 298,233 L 298,234 L 299,235 L 299,237 L 301,240 L 302,247 L 303,248 L 303,250 L 304,251 L 304,256 L 305,257 L 305,284 L 304,285 L 304,290 L 303,291 L 301,296 L 300,297 L 299,297 L 299,298 L 297,300 L 296,300 L 292,303 L 290,303 L 289,304 L 287,304 L 286,305 L 280,305 L 279,304 L 279,303 L 282,300 L 283,300 L 284,299 L 284,298 L 290,291 L 290,289 L 292,286 L 292,282 L 293,281 L 293,269 L 294,268 L 294,264 L 295,263 L 295,258 L 294,257 L 294,254 L 293,253 L 293,238 L 292,237 L 292,233 L 291,232 L 291,230 L 290,229 L 290,225 L 289,224 L 289,221 L 288,220 L 288,218 Z" fill="white" stroke="none" stroke-width="1.0" />
<path d="M 202,200 L 203,201 L 203,202 L 204,203 L 204,206 L 206,208 L 206,210 L 207,211 L 207,214 L 208,215 L 208,217 L 209,218 L 209,220 L 211,222 L 211,223 L 210,224 L 209,224 L 208,225 L 207,224 L 207,222 L 207,223 L 206,224 L 205,223 L 205,222 L 204,222 L 200,218 L 200,202 Z" fill="white" stroke="none" stroke-width="1.0" />
<path d="M 316,202 L 328,198 L 335,202 L 337,202 L 343,208 L 344,211 L 344,220 L 350,228 L 352,229 L 359,249 L 361,251 L 362,257 L 367,267 L 367,277 L 364,280 L 360,281 L 355,271 L 342,260 L 333,249 L 330,238 L 331,230 L 333,226 L 331,224 L 328,227 L 322,241 L 322,244 L 319,251 L 319,256 L 317,261 L 315,275 L 309,285 L 308,284 L 308,278 L 309,277 L 308,253 L 307,252 L 307,248 L 305,245 L 304,236 L 296,218 L 311,207 Z" fill="white" stroke="none" stroke-width="1.06" />
<path d="M 195,196 L 196,197 L 196,199 L 195,200 L 193,200 L 192,199 L 193,198 L 194,198 L 194,197 Z" fill="none" stroke="white" stroke-width="1.0" />
<path d="M 125,198 L 128,195 L 137,194 L 140,196 L 138,198 L 130,200 L 130,202 L 131,203 L 135,201 L 142,201 L 143,202 L 142,208 L 137,213 L 130,217 L 131,226 L 136,233 L 136,235 L 139,237 L 142,229 L 148,223 L 153,221 L 165,220 L 167,206 L 177,195 L 180,194 L 181,195 L 181,199 L 180,200 L 181,207 L 180,209 L 182,216 L 182,222 L 185,233 L 190,243 L 188,244 L 179,237 L 175,226 L 172,225 L 171,227 L 175,235 L 175,238 L 166,253 L 156,261 L 143,267 L 140,267 L 134,261 L 130,252 L 128,250 L 127,244 L 122,233 L 122,229 L 121,228 L 121,210 Z" fill="white" stroke="none" stroke-width="1.01" />
<path d="M 217,184 L 218,183 L 220,183 L 222,185 L 221,186 L 220,186 L 219,185 L 218,185 Z" fill="none" stroke="white" stroke-width="1.0" />
<path d="M 251,205 L 259,199 L 263,190 L 274,182 L 283,172 L 286,172 L 296,183 L 309,188 L 313,188 L 323,179 L 335,183 L 344,192 L 353,195 L 361,203 L 362,207 L 369,212 L 385,234 L 386,240 L 388,243 L 393,246 L 399,247 L 403,252 L 390,255 L 378,261 L 369,260 L 365,255 L 358,233 L 349,220 L 347,207 L 341,200 L 332,195 L 328,194 L 322,195 L 312,200 L 296,214 L 292,212 L 289,213 L 281,219 L 274,229 L 267,235 L 263,233 L 260,227 L 260,219 L 257,210 Z" fill="white" stroke="none" stroke-width="1.25" />
<path d="M 190,152 L 191,151 L 192,151 L 194,153 L 194,154 L 197,157 L 197,158 L 196,159 L 195,159 L 194,158 L 193,158 L 190,155 Z" fill="none" stroke="white" stroke-width="1.0" />
<path d="M 164,144 L 165,143 L 167,143 L 168,144 L 168,145 L 166,147 L 164,145 Z" fill="none" stroke="white" stroke-width="1.0" />
<path d="M 162,131 L 162,129 L 164,127 L 165,127 L 166,126 L 168,126 L 169,127 L 170,127 L 172,129 L 172,130 L 170,132 L 163,132 Z" fill="none" stroke="white" stroke-width="1.0" />
<path d="M 150,129 L 150,127 L 153,124 L 160,124 L 161,125 L 161,127 L 159,129 L 158,129 L 157,130 L 153,130 L 152,131 Z" fill="none" stroke="white" stroke-width="1.0" />
<path d="M 380,123 L 387,123 L 400,128 L 423,145 L 426,150 L 425,152 L 423,152 L 395,131 L 395,133 L 401,140 L 415,153 L 421,157 L 433,171 L 434,183 L 436,186 L 437,198 L 439,203 L 439,214 L 434,216 L 419,226 L 414,227 L 413,224 L 416,221 L 427,215 L 431,211 L 432,208 L 430,207 L 427,209 L 420,210 L 413,215 L 409,212 L 404,202 L 401,192 L 401,188 L 399,185 L 396,173 L 387,160 L 383,152 L 381,134 L 379,128 Z" fill="white" stroke="none" stroke-width="1.09" />
<path d="M 178,120 L 179,121 L 179,124 L 175,128 L 174,128 L 173,127 L 173,124 L 177,120 Z" fill="none" stroke="white" stroke-width="1.0" />
<path d="M 260,117 L 268,125 L 268,126 L 269,126 L 274,131 L 274,133 L 273,134 L 270,134 L 269,135 L 267,135 L 260,128 L 260,126 L 259,125 L 259,118 Z" fill="white" stroke="none" stroke-width="1.0" />
<path d="M 198,116 L 199,116 L 200,117 L 200,118 L 201,119 L 199,121 L 198,120 L 197,120 L 196,119 L 196,118 Z" fill="none" stroke="white" stroke-width="1.0" />
<path d="M 188,111 L 188,112 L 187,113 L 187,115 L 186,116 L 185,116 L 184,117 L 183,117 L 182,118 L 181,118 L 180,117 L 179,117 L 178,116 L 179,115 L 179,114 L 181,112 L 182,112 L 184,110 L 185,110 L 186,109 Z" fill="none" stroke="white" stroke-width="1.0" />
<path d="M 179,103 L 179,111 L 178,112 L 178,113 L 176,115 L 176,116 L 175,117 L 175,119 L 174,120 L 173,120 L 172,121 L 172,122 L 170,124 L 166,124 L 165,125 L 161,121 L 156,121 L 155,120 L 155,118 L 159,114 L 160,114 L 161,113 L 161,112 L 162,111 L 163,111 L 164,110 L 165,110 L 166,109 L 167,109 L 169,107 L 170,107 L 172,105 L 173,105 L 175,103 L 177,103 L 178,102 Z" fill="white" stroke="none" stroke-width="1.0" />
<path d="M 195,101 L 206,110 L 196,114 L 192,121 L 196,123 L 203,123 L 207,113 L 217,121 L 212,128 L 218,128 L 215,133 L 219,131 L 221,133 L 218,136 L 220,140 L 225,143 L 223,145 L 219,144 L 218,145 L 220,147 L 211,153 L 209,153 L 208,150 L 213,149 L 208,147 L 208,149 L 205,150 L 207,154 L 199,156 L 195,150 L 204,140 L 202,139 L 199,141 L 197,139 L 197,145 L 194,146 L 190,141 L 193,136 L 192,135 L 189,138 L 188,135 L 184,133 L 184,137 L 189,145 L 189,152 L 186,154 L 180,151 L 179,154 L 185,156 L 186,161 L 189,157 L 196,163 L 191,168 L 187,165 L 189,170 L 185,172 L 183,170 L 185,167 L 183,161 L 179,158 L 179,156 L 177,161 L 176,158 L 173,157 L 175,162 L 177,161 L 180,164 L 183,164 L 181,168 L 182,172 L 180,174 L 177,172 L 174,173 L 172,168 L 168,169 L 166,167 L 169,163 L 164,163 L 166,156 L 158,161 L 155,160 L 155,156 L 159,147 L 164,150 L 168,150 L 171,145 L 175,143 L 167,140 L 156,145 L 152,134 L 154,132 L 159,132 L 163,135 L 168,135 L 169,138 L 177,138 L 178,136 L 173,133 L 179,129 L 182,122 L 190,116 L 191,107 Z" fill="white" stroke="none" stroke-width="1.0" />
<path d="M 190,99 L 191,100 L 190,101 L 190,104 L 189,105 L 189,106 L 188,107 L 187,107 L 186,108 L 182,108 L 181,107 L 181,106 L 182,105 L 182,104 L 187,99 Z" fill="none" stroke="white" stroke-width="1.0" />
<path d="M 254,78 L 255,78 L 256,79 L 257,79 L 258,80 L 259,80 L 260,81 L 261,81 L 262,82 L 263,82 L 265,84 L 266,84 L 267,85 L 268,85 L 270,87 L 271,87 L 273,89 L 274,89 L 276,91 L 277,91 L 278,92 L 278,97 L 277,98 L 277,109 L 276,110 L 274,110 L 273,109 L 273,108 L 265,100 L 264,100 L 261,97 L 260,97 L 259,96 L 258,96 L 257,95 L 256,95 L 255,94 L 254,94 L 253,93 L 252,93 L 250,91 L 251,90 L 251,89 L 253,87 L 253,86 L 254,85 L 254,81 L 253,80 L 253,79 Z" fill="white" stroke="none" stroke-width="1.0" />
<path d="M 258,72 L 260,70 L 262,70 L 263,71 L 264,71 L 264,70 L 266,68 L 269,68 L 271,70 L 271,76 L 272,77 L 272,78 L 274,80 L 274,81 L 275,82 L 274,83 L 273,83 L 270,80 L 269,80 L 266,77 L 265,77 L 264,76 L 263,76 L 262,75 L 261,75 L 260,74 L 259,74 L 258,73 Z" fill="white" stroke="none" stroke-width="1.0" />
<path d="M 309,59 L 315,58 L 317,60 L 319,69 L 330,88 L 346,110 L 365,130 L 370,138 L 376,166 L 400,208 L 401,246 L 394,243 L 389,238 L 388,232 L 377,216 L 374,214 L 371,208 L 364,203 L 362,198 L 356,192 L 346,189 L 337,180 L 325,176 L 320,176 L 312,184 L 307,184 L 297,179 L 286,168 L 304,145 L 306,134 L 315,141 L 325,153 L 328,152 L 328,148 L 323,136 L 304,113 L 302,80 L 307,73 Z" fill="white" stroke="none" stroke-width="1.73" />
<path d="M 327,55 L 330,53 L 332,53 L 334,51 L 338,51 L 346,57 L 348,57 L 355,63 L 358,64 L 362,68 L 366,70 L 374,78 L 375,78 L 376,80 L 378,81 L 380,83 L 380,84 L 381,84 L 383,86 L 383,87 L 384,87 L 386,89 L 386,90 L 388,91 L 388,92 L 404,110 L 404,111 L 406,113 L 406,115 L 405,116 L 393,110 L 391,110 L 385,107 L 383,107 L 379,104 L 370,100 L 368,98 L 366,98 L 362,95 L 360,95 L 355,92 L 353,92 L 351,90 L 351,86 L 355,82 L 357,82 L 358,81 L 362,80 L 365,77 L 365,75 L 358,75 L 357,76 L 354,76 L 353,75 L 349,75 L 348,74 L 346,74 L 344,72 L 338,69 L 328,59 Z" fill="white" stroke="none" stroke-width="1.0" />
<path d="M 308,53 L 298,80 L 301,143 L 252,200 L 238,204 L 227,224 L 212,228 L 221,231 L 229,227 L 241,210 L 235,231 L 223,243 L 205,228 L 197,231 L 217,257 L 247,257 L 255,244 L 249,229 L 236,245 L 224,245 L 238,233 L 246,206 L 253,211 L 259,234 L 265,239 L 262,250 L 243,267 L 214,264 L 191,239 L 184,189 L 193,179 L 199,160 L 215,157 L 222,169 L 217,183 L 212,179 L 213,169 L 205,167 L 191,200 L 198,200 L 197,219 L 207,226 L 225,217 L 231,203 L 271,170 L 295,137 L 290,97 L 296,71 L 293,65 L 285,77 L 291,92 L 284,136 L 263,150 L 254,164 L 237,168 L 223,184 L 221,178 L 230,163 L 252,158 L 260,142 L 278,134 L 281,86 L 273,69 L 280,71 L 288,53 L 287,61 L 297,51 L 301,52 L 296,58 Z" fill="white" stroke="none" stroke-width="1.49" />
<path d="M 223,27 L 286,31 L 332,50 L 316,56 L 301,48 L 286,50 L 270,66 L 256,70 L 247,93 L 259,139 L 249,154 L 223,165 L 217,154 L 229,142 L 222,137 L 221,120 L 205,104 L 186,96 L 158,110 L 146,128 L 154,148 L 152,161 L 161,163 L 173,179 L 190,177 L 166,200 L 162,215 L 148,219 L 138,231 L 133,221 L 146,209 L 141,192 L 126,192 L 117,224 L 125,253 L 139,272 L 163,261 L 177,241 L 190,249 L 213,279 L 232,290 L 239,332 L 256,348 L 273,347 L 281,338 L 281,319 L 273,308 L 295,306 L 312,286 L 322,304 L 346,322 L 341,331 L 361,346 L 376,345 L 375,370 L 352,389 L 312,410 L 261,422 L 190,416 L 120,381 L 68,320 L 50,276 L 44,242 L 53,163 L 89,98 L 115,72 L 155,46 Z" fill="white" stroke="none" stroke-width="4.93" />
<path d="M 0,0 L 0,541 L 485,541 L 485,0 Z" fill="white" stroke="none" stroke-width="10.24" />
<path d="M 83,452 L 90,443 L 108,441 L 126,445 L 143,441 L 155,445 L 169,441 L 174,443 L 199,442 L 210,451 L 217,444 L 229,441 L 238,443 L 247,451 L 262,441 L 285,442 L 299,449 L 315,442 L 325,441 L 337,444 L 353,441 L 386,442 L 396,450 L 395,458 L 389,464 L 389,467 L 399,477 L 402,487 L 398,494 L 387,498 L 371,495 L 357,499 L 341,493 L 323,499 L 299,492 L 286,498 L 250,497 L 231,499 L 213,497 L 207,499 L 185,498 L 176,493 L 162,498 L 145,498 L 131,492 L 119,498 L 100,499 L 87,495 L 84,491 L 85,463 Z" fill="white" stroke="none" stroke-width="2.59" />
<path d="M 192,21 L 229,16 L 269,17 L 339,39 L 376,65 L 409,99 L 430,132 L 443,167 L 450,205 L 450,243 L 445,274 L 431,316 L 411,348 L 382,380 L 338,410 L 290,428 L 253,433 L 203,430 L 158,416 L 122,396 L 91,369 L 66,338 L 51,312 L 38,271 L 33,236 L 35,191 L 47,148 L 67,110 L 91,80 L 117,57 L 149,37 Z" fill="white" stroke="none" stroke-width="7.39" />
</g>
</svg>